<svg width="191" height="37" viewBox="0 0 191 37" fill="none" xmlns="http://www.w3.org/2000/svg">
<path d="M1.35938 28V6.90909H10.4631C12.0284 6.90909 13.3981 7.21804 14.5721 7.83594C15.7461 8.45383 16.6592 9.32232 17.3114 10.4414C17.9637 11.5605 18.2898 12.8684 18.2898 14.3651C18.2898 15.8755 17.9534 17.1834 17.2805 18.2887C16.6146 19.3941 15.6774 20.2454 14.4691 20.8427C13.2676 21.44 11.8636 21.7386 10.2571 21.7386H4.8196V17.2898H9.10369C9.77652 17.2898 10.3498 17.1731 10.8235 16.9396C11.3041 16.6993 11.6714 16.3595 11.9254 15.9201C12.1863 15.4807 12.3168 14.9624 12.3168 14.3651C12.3168 13.7609 12.1863 13.246 11.9254 12.8203C11.6714 12.3878 11.3041 12.0582 10.8235 11.8317C10.3498 11.5982 9.77652 11.4815 9.10369 11.4815H7.08523V28H1.35938ZM25.4205 6.90909V28H19.6946V6.90909H25.4205ZM47.1867 11.5227V6.90909H65.5177V11.5227H59.174V28H53.5305V11.5227H47.1867ZM66.9766 28V6.90909H76.0803C77.6457 6.90909 79.0153 7.19401 80.1893 7.76385C81.3634 8.33369 82.2765 9.15412 82.9287 10.2251C83.5809 11.2962 83.907 12.58 83.907 14.0767C83.907 15.5871 83.5706 16.8607 82.8978 17.8974C82.2318 18.9341 81.2947 19.7167 80.0864 20.2454C78.8849 20.774 77.4809 21.0384 75.8744 21.0384H70.4369V16.5895H74.7209C75.3938 16.5895 75.967 16.5071 76.4408 16.3423C76.9214 16.1707 77.2887 15.8995 77.5427 15.5288C77.8036 15.158 77.934 14.674 77.934 14.0767C77.934 13.4725 77.8036 12.9817 77.5427 12.604C77.2887 12.2196 76.9214 11.9381 76.4408 11.7596C75.967 11.5742 75.3938 11.4815 74.7209 11.4815H72.7025V28H66.9766ZM79.3346 18.3196L84.6073 28H78.3871L73.238 18.3196H79.3346ZM103.9 6.90909V28H99.1219L91.5012 16.919H91.3776V28H85.6517V6.90909H90.5125L98.0097 17.9489H98.1745V6.90909H103.9ZM111.391 28H105.212L112.174 6.90909H120.001L126.962 28H120.783L116.17 12.7173H116.005L111.391 28ZM110.238 19.679H121.855V23.9631H110.238V19.679ZM136.99 6.90909H142.633V21.3679C142.626 22.741 142.279 23.9493 141.593 24.9929C140.913 26.0296 139.973 26.8397 138.771 27.4233C137.577 28 136.2 28.2884 134.642 28.2884C133.289 28.2884 132.053 28.0549 130.934 27.5881C129.815 27.1143 128.923 26.3729 128.257 25.3636C127.591 24.3475 127.261 23.0294 127.268 21.4091H132.994C133.014 21.9377 133.104 22.384 133.262 22.7479C133.426 23.1117 133.653 23.3864 133.941 23.5717C134.236 23.7502 134.594 23.8395 135.012 23.8395C135.438 23.8395 135.795 23.7468 136.083 23.5614C136.379 23.3761 136.602 23.1014 136.753 22.7376C136.904 22.3668 136.983 21.9103 136.99 21.3679V6.90909ZM152.766 28H144.651V6.90909H152.683C154.853 6.90909 156.727 7.33132 158.306 8.17578C159.892 9.01338 161.114 10.2217 161.972 11.8008C162.837 13.373 163.27 15.2576 163.27 17.4545C163.27 19.6515 162.841 21.5395 161.983 23.1186C161.124 24.6908 159.909 25.8991 158.337 26.7436C156.765 27.5812 154.908 28 152.766 28ZM150.376 23.1392H152.56C153.603 23.1392 154.492 22.971 155.227 22.6346C155.968 22.2982 156.531 21.718 156.916 20.8942C157.307 20.0703 157.503 18.9238 157.503 17.4545C157.503 15.9853 157.304 14.8388 156.906 14.0149C156.514 13.1911 155.938 12.6109 155.175 12.2745C154.42 11.9381 153.493 11.7699 152.395 11.7699H150.376V23.1392ZM169.371 28H163.192L170.153 6.90909H177.98L184.942 28H178.763L174.149 12.7173H173.984L169.371 28ZM168.217 19.679H179.834V23.9631H168.217V19.679Z" fill="#FFEAD1"/>
<circle cx="39.5" cy="25.5" r="11.5" fill="#FF8F10"/>
</svg>
